<svg width="26" height="22" viewBox="0 0 26 22" fill="none" xmlns="http://www.w3.org/2000/svg">
<path d="M16.0613 0.934896L25.0613 9.9349C25.2011 10.0743 25.312 10.2398 25.3878 10.4222C25.4635 10.6045 25.5024 10.8 25.5024 10.9974C25.5024 11.1948 25.4635 11.3903 25.3878 11.5726C25.312 11.755 25.2011 11.9205 25.0613 12.0599L16.0613 21.0599C15.7795 21.3417 15.3973 21.5 14.9988 21.5C14.6002 21.5 14.218 21.3417 13.9363 21.0599C13.6545 20.7781 13.4962 20.3959 13.4962 19.9974C13.4962 19.5989 13.6545 19.2167 13.9363 18.9349L20.375 12.4961L2 12.4961C1.60217 12.4961 1.22064 12.3381 0.93934 12.0568C0.658035 11.7755 0.5 11.394 0.5 10.9961C0.5 10.5983 0.658035 10.2168 0.939339 9.93549C1.22064 9.65418 1.60217 9.49615 2 9.49615L20.375 9.49615L13.935 3.0574C13.6532 2.7756 13.4949 2.39341 13.4949 1.9949C13.4949 1.59638 13.6532 1.21419 13.935 0.932397C14.2168 0.650604 14.599 0.492292 14.9975 0.492292C15.396 0.492292 15.7782 0.650604 16.06 0.932397L16.0613 0.934896Z" fill="#000"/>
</svg>
