<svg width="24" height="28" viewBox="0 0 24 28" fill="none" xmlns="http://www.w3.org/2000/svg">
<path d="M23.9995 6.00232V17.3686C23.9995 23.1436 19.3933 27.9373 13.6245 28.0011C12.2244 28.0199 10.8348 27.7576 9.5379 27.2296C8.24103 26.7017 7.06331 25.9188 6.07453 24.9273C3.34828 22.0436 0.26828 15.0023 0.26828 15.0023C0.1328 14.7678 0.0463497 14.5083 0.0141704 14.2394C-0.0180088 13.9705 0.00475337 13.6979 0.0810769 13.4381C0.1574 13.1782 0.285695 12.9366 0.458184 12.7279C0.630672 12.5191 0.84376 12.3475 1.08453 12.2236C2.04203 11.7236 3.22203 12.1186 3.75953 13.0511L6.38453 17.6061C6.45754 17.7372 6.56769 17.8439 6.70113 17.9126C6.83458 17.9813 6.98536 18.009 7.13453 17.9923H7.14953C7.38974 17.951 7.60731 17.8253 7.76312 17.6378C7.91894 17.4504 8.00277 17.2135 7.99953 16.9698V4.00232C7.99922 3.73137 8.05396 3.46319 8.16043 3.21405C8.26691 2.9649 8.42289 2.73999 8.61893 2.55296C8.81496 2.36592 9.04695 2.22067 9.30082 2.12602C9.55469 2.03136 9.82515 1.98928 10.0958 2.00232C11.172 2.05232 11.9995 2.97982 11.9995 4.05607V12.0023C11.9992 12.1394 12.0271 12.2751 12.0815 12.4009C12.1358 12.5268 12.2155 12.6401 12.3154 12.7339C12.4154 12.8277 12.5336 12.8999 12.6627 12.9461C12.7918 12.9923 12.929 13.0114 13.0658 13.0023C13.3229 12.9802 13.5622 12.8616 13.7354 12.6703C13.9086 12.479 14.003 12.2291 13.9995 11.9711V2.00232C13.9992 1.73137 14.054 1.46319 14.1604 1.21405C14.2669 0.964902 14.4229 0.739988 14.6189 0.552956C14.815 0.365924 15.047 0.220672 15.3008 0.126018C15.5547 0.0313629 15.8252 -0.0107218 16.0958 0.00231754C17.172 0.0523175 17.9995 0.979818 17.9995 2.05607V13.0023C17.9992 13.1394 18.0271 13.2751 18.0815 13.4009C18.1358 13.5268 18.2155 13.6401 18.3154 13.7339C18.4154 13.8277 18.5336 13.8999 18.6627 13.9461C18.7918 13.9923 18.929 14.0114 19.0658 14.0023C19.3229 13.9802 19.5622 13.8616 19.7354 13.6703C19.9086 13.479 20.003 13.2291 19.9995 12.9711V6.05857C19.9995 4.98232 20.827 4.05857 21.9033 4.00482C22.1737 3.99179 22.4439 4.0338 22.6977 4.1283C22.9514 4.2228 23.1832 4.36783 23.3792 4.55459C23.5752 4.74136 23.7313 4.96597 23.8379 5.21482C23.9445 5.46368 23.9995 5.73158 23.9995 6.00232Z" fill="#000"/>
</svg>
