<svg width="24" height="24" viewBox="0 0 24 24" fill="none" xmlns="http://www.w3.org/2000/svg">
<path d="M23.4127 19.9989C23.5984 20.1846 23.7458 20.4051 23.8463 20.6478C23.9469 20.8905 23.9986 21.1506 23.9986 21.4133C23.9986 21.676 23.9469 21.9361 23.8463 22.1787C23.7458 22.4214 23.5984 22.6419 23.4127 22.8277L22.8277 23.4127C22.6419 23.5984 22.4214 23.7458 22.1787 23.8463C21.9361 23.9469 21.676 23.9986 21.4133 23.9986C21.1506 23.9986 20.8905 23.9469 20.6478 23.8463C20.4051 23.7458 20.1846 23.5984 19.9989 23.4127L13.0927 16.5077L10.3577 22.8002C10.2044 23.1571 9.94953 23.461 9.62481 23.6742C9.30008 23.8873 8.91983 24.0003 8.5314 23.9989H8.4339C8.02894 23.9819 7.63897 23.8409 7.31679 23.595C6.99461 23.3491 6.75579 23.0101 6.63265 22.6239L0.0989014 2.6139C-0.0156934 2.26376 -0.0310305 1.88872 0.0545917 1.53039C0.140214 1.17206 0.323447 0.844465 0.583956 0.583956C0.844465 0.323447 1.17206 0.140214 1.53039 0.0545917C1.88872 -0.0310305 2.26376 -0.0156934 2.6139 0.0989014L22.6239 6.63265C23.0063 6.76058 23.3412 7.00114 23.5845 7.32275C23.8277 7.64436 23.9681 8.032 23.9872 8.43482C24.0062 8.83763 23.9031 9.2368 23.6913 9.57994C23.4794 9.92309 23.1688 10.1942 22.8002 10.3577L16.5077 13.0927L23.4127 19.9989Z" fill="#000"/>
</svg>
