<svg width="23" height="23" viewBox="0 0 23 23" fill="none" xmlns="http://www.w3.org/2000/svg">
<path d="M22.46 5.67682L17.3211 0.539029C17.1502 0.368138 16.9474 0.232578 16.7241 0.140091C16.5009 0.0476031 16.2616 0 16.02 0C15.7783 0 15.539 0.0476031 15.3158 0.140091C15.0925 0.232578 14.8897 0.368138 14.7188 0.539029L0.539316 14.7185C0.367726 14.8888 0.231685 15.0914 0.139101 15.3147C0.0465171 15.5379 -0.000762894 15.7774 9.30845e-06 16.0191V21.158C9.30845e-06 21.646 0.19385 22.114 0.53889 22.459C0.883929 22.804 1.3519 22.9979 1.83986 22.9979H21.1583C21.4023 22.9979 21.6363 22.901 21.8088 22.7284C21.9813 22.5559 22.0782 22.3219 22.0782 22.078C22.0782 21.834 21.9813 21.6 21.8088 21.4275C21.6363 21.255 21.4023 21.158 21.1583 21.158H9.58104L22.46 8.27906C22.6309 8.10821 22.7665 7.90537 22.859 7.68212C22.9514 7.45887 22.999 7.21959 22.999 6.97794C22.999 6.73629 22.9514 6.49701 22.859 6.27376C22.7665 6.05051 22.6309 5.84767 22.46 5.67682ZM18.3985 9.73829L13.2608 4.59935L16.0205 1.83958L21.1583 6.97852L18.3985 9.73829Z" fill="#000"/>
</svg>
