<svg width="32" height="24" viewBox="0 0 32 24" fill="none" xmlns="http://www.w3.org/2000/svg">
<path d="M18.283 21.4861L10.783 1.48608C10.6848 1.22397 10.5088 0.998095 10.2788 0.838641C10.0487 0.679186 9.77545 0.59375 9.49553 0.59375C9.2156 0.59375 8.94235 0.679186 8.71228 0.838641C8.48221 0.998095 8.30629 1.22397 8.20803 1.48608L0.708027 21.4861C0.583982 21.8267 0.599433 22.2024 0.75102 22.5317C0.902607 22.8609 1.17807 23.117 1.51748 23.2442C1.85689 23.3714 2.2328 23.3594 2.56344 23.2109C2.89407 23.0624 3.15269 22.7893 3.28303 22.4511L5.54303 16.4248C5.55193 16.401 5.56789 16.3805 5.58877 16.3659C5.60965 16.3514 5.63447 16.3436 5.6599 16.3436H13.3312C13.3566 16.3436 13.3814 16.3514 13.4023 16.3659C13.4232 16.3805 13.4391 16.401 13.448 16.4248L15.708 22.4511C15.8384 22.7893 16.097 23.0624 16.4276 23.2109C16.7583 23.3594 17.1342 23.3714 17.4736 23.2442C17.813 23.117 18.0884 22.8609 18.24 22.5317C18.3916 22.2024 18.4071 21.8267 18.283 21.4861ZM6.66803 13.4236L9.37865 6.19546C9.38765 6.17174 9.40365 6.15132 9.42452 6.13691C9.4454 6.1225 9.47016 6.11479 9.49553 6.11479C9.52089 6.11479 9.54566 6.1225 9.56653 6.13691C9.58741 6.15132 9.60341 6.17174 9.6124 6.19546L12.323 13.4248C12.3301 13.4437 12.3325 13.464 12.33 13.4841C12.3275 13.5041 12.3202 13.5232 12.3087 13.5398C12.2972 13.5563 12.2819 13.5699 12.264 13.5793C12.2462 13.5886 12.2263 13.5935 12.2062 13.5936H6.7849C6.76474 13.5935 6.74488 13.5886 6.72702 13.5793C6.70917 13.5699 6.69384 13.5563 6.68236 13.5398C6.67088 13.5232 6.66358 13.5041 6.66108 13.4841C6.65859 13.464 6.66097 13.4437 6.66803 13.4248V13.4236ZM25.0437 6.59358C22.4362 6.57483 20.1012 8.08546 19.1062 10.4311C18.9636 10.7667 18.9602 11.1453 19.0968 11.4834C19.2333 11.8216 19.4986 12.0917 19.8343 12.2342C20.1699 12.3768 20.5485 12.3801 20.8866 12.2436C21.2248 12.107 21.4948 11.8417 21.6374 11.5061C22.1924 10.2005 23.498 9.35358 24.9699 9.34358C26.9899 9.32983 28.6205 10.9998 28.6205 13.0217C28.6205 13.046 28.6111 13.0694 28.5942 13.0869C28.5773 13.1044 28.5542 13.1146 28.5299 13.1155C27.1599 13.1536 25.5349 13.2448 24.0849 13.4155C20.663 13.818 18.6205 15.6836 18.6205 18.4061C18.6205 19.8555 19.168 21.1561 20.1624 22.0736C21.0955 22.933 22.3705 23.4061 23.7455 23.4061C25.683 23.4061 27.3512 22.9061 28.6168 21.9548H28.6205C28.6197 22.1354 28.6545 22.3144 28.7229 22.4815C28.7913 22.6486 28.8919 22.8006 29.0191 22.9288C29.1462 23.0571 29.2973 23.159 29.4639 23.2288C29.6304 23.2987 29.809 23.335 29.9896 23.3358C30.1702 23.3365 30.3491 23.3018 30.5162 23.2334C30.6834 23.165 30.8354 23.0644 30.9636 22.9372C31.0918 22.8101 31.1938 22.659 31.2636 22.4924C31.3334 22.3259 31.3697 22.1473 31.3705 21.9667V13.0292C31.3705 9.51796 28.558 6.61921 25.0437 6.59358ZM23.7455 20.6561C22.6499 20.6561 21.3705 20.0667 21.3705 18.4061C21.3705 17.7392 21.6099 17.2723 22.1474 16.8917C22.6705 16.5211 23.4724 16.2567 24.4062 16.1467C25.7262 15.9911 27.2074 15.9055 28.4774 15.8673C28.4944 15.8673 28.5111 15.8707 28.5267 15.8774C28.5423 15.8841 28.5564 15.8938 28.5681 15.9061C28.5798 15.9184 28.5888 15.9329 28.5947 15.9488C28.6006 15.9647 28.6032 15.9816 28.6024 15.9986C28.433 19.1311 26.8368 20.6561 23.7455 20.6561Z" fill="#000"/>
</svg>
