<svg width="80" height="80" viewBox="0 0 80 80" fill="none" xmlns="http://www.w3.org/2000/svg">
<g opacity="0.65" filter="url(#filter0_d_668_2730)">
<rect x="24" y="22" width="32" height="32" rx="16" fill="white"/>
</g>
<path d="M32.5 36.5C31.675 36.5 31 37.175 31 38C31 38.825 31.675 39.5 32.5 39.5C33.325 39.5 34 38.825 34 38C34 37.175 33.325 36.5 32.5 36.5ZM47.5 36.5C46.675 36.5 46 37.175 46 38C46 38.825 46.675 39.5 47.5 39.5C48.325 39.5 49 38.825 49 38C49 37.175 48.325 36.5 47.5 36.5ZM40 36.5C39.175 36.5 38.5 37.175 38.5 38C38.5 38.825 39.175 39.5 40 39.5C40.825 39.5 41.5 38.825 41.5 38C41.5 37.175 40.825 36.5 40 36.5Z" fill="#B4BCC6"/>
<defs>
<filter id="filter0_d_668_2730" x="0" y="0" width="80" height="80" filterUnits="userSpaceOnUse" color-interpolation-filters="sRGB">
<feFlood flood-opacity="0" result="BackgroundImageFix"/>
<feColorMatrix in="SourceAlpha" type="matrix" values="0 0 0 0 0 0 0 0 0 0 0 0 0 0 0 0 0 0 127 0" result="hardAlpha"/>
<feOffset dy="2"/>
<feGaussianBlur stdDeviation="12"/>
<feComposite in2="hardAlpha" operator="out"/>
<feColorMatrix type="matrix" values="0 0 0 0 0 0 0 0 0 0 0 0 0 0 0 0 0 0 0.06 0"/>
<feBlend mode="normal" in2="BackgroundImageFix" result="effect1_dropShadow_668_2730"/>
<feBlend mode="normal" in="SourceGraphic" in2="effect1_dropShadow_668_2730" result="shape"/>
</filter>
</defs>
</svg>
