<svg width="148" height="31" viewBox="0 0 148 31" fill="none" xmlns="http://www.w3.org/2000/svg">
<path d="M6.328 18.168H17.08V23H0.92V1.24H6.328V18.168ZM30.1028 7.48H35.2868V23H30.1028V22.168C28.9508 22.936 27.5748 23.416 25.8468 23.416C21.6548 23.416 18.1348 19.832 18.1348 15.224C18.1348 10.584 21.6548 7.064 25.8468 7.064C27.5748 7.064 28.9508 7.512 30.1028 8.28V7.48ZM26.9028 19C28.0228 19 29.1108 18.712 30.1028 17.624V12.824C29.1108 11.736 28.0228 11.448 26.9028 11.448C24.7908 11.448 23.2228 13.08 23.2228 15.224C23.2228 17.368 24.7908 19 26.9028 19ZM48.8555 7.48H54.0395V23H48.8555V21.912C47.6075 22.872 46.2635 23.416 44.5995 23.416C40.6635 23.416 37.9755 20.696 37.9755 16.28V7.48H43.1595V15.48C43.1595 17.688 44.3115 18.744 46.0075 18.744C46.9675 18.744 47.9595 18.2 48.8555 17.208V7.48ZM68.1978 7.48H73.3818V23.096C73.3818 27.96 69.9258 30.776 65.0618 30.776C60.3578 30.776 56.9338 28.088 56.6778 24.056H61.7978C62.0538 25.496 63.1418 26.392 65.0618 26.392C66.8218 26.392 68.1978 25.304 68.1978 23.192V21.336C67.0458 22.04 65.6698 22.456 63.9418 22.456C59.7498 22.456 56.2298 19.16 56.2298 14.968C56.2298 10.232 59.7498 7.064 63.9418 7.064C65.6698 7.064 67.0458 7.512 68.1978 8.248V7.48ZM64.9978 18.328C66.1178 18.328 67.2058 17.976 68.1978 16.856V12.76C67.2058 11.64 66.1178 11.32 64.9978 11.32C62.8858 11.32 61.3178 12.728 61.3178 14.968C61.3178 16.664 62.8858 18.328 64.9978 18.328ZM85.7345 7.064C89.6385 7.064 92.3265 9.72 92.3265 14.136V23H87.1425V14.968C87.1425 12.76 86.0225 11.768 84.2945 11.768C83.3665 11.768 82.3745 12.248 81.4785 13.24V23H76.2625V0.279999H81.4785V8.504C82.7265 7.576 84.0705 7.064 85.7345 7.064ZM100.597 18.168H111.349V23H95.1888V1.24H100.597V18.168ZM120.948 7.064C125.94 7.064 129.46 10.488 129.46 15.256C129.46 20.056 125.94 23.416 120.948 23.416C115.956 23.416 112.404 20.056 112.404 15.256C112.404 10.488 115.956 7.064 120.948 7.064ZM120.948 19.096C123.092 19.096 124.596 17.528 124.596 15.256C124.596 13.016 123.092 11.416 120.948 11.416C118.772 11.416 117.268 13.016 117.268 15.256C117.268 17.528 118.772 19.096 120.948 19.096ZM142.638 7.48H147.822V23.096C147.822 27.96 144.366 30.776 139.502 30.776C134.798 30.776 131.374 28.088 131.118 24.056H136.238C136.494 25.496 137.582 26.392 139.502 26.392C141.262 26.392 142.638 25.304 142.638 23.192V21.336C141.486 22.04 140.11 22.456 138.382 22.456C134.19 22.456 130.67 19.16 130.67 14.968C130.67 10.232 134.19 7.064 138.382 7.064C140.11 7.064 141.486 7.512 142.638 8.248V7.48ZM139.438 18.328C140.558 18.328 141.646 17.976 142.638 16.856V12.76C141.646 11.64 140.558 11.32 139.438 11.32C137.326 11.32 135.758 12.728 135.758 14.968C135.758 16.664 137.326 18.328 139.438 18.328Z" fill="#121212"/>
</svg>
