<svg width="1562" height="1092" viewBox="0 0 1562 1092" fill="none" xmlns="http://www.w3.org/2000/svg">
<mask id="path-1-outside-1_485_2660" maskUnits="userSpaceOnUse" x="348" y="37" width="905" height="265" fill="black">
<rect fill="white" x="348" y="37" width="905" height="265"/>
<path d="M666.667 50.392H718.466L637.889 296.439H589.687L535.01 138.523L479.973 296.439H431.771L351.194 50.392H402.994L456.232 219.459L514.146 50.392H555.514L613.429 219.459L666.667 50.392ZM798.936 119.098C852.534 119.098 889.945 156.149 889.945 209.387C889.945 262.266 852.534 299.317 798.936 299.317C744.978 299.317 707.568 262.266 707.568 209.387C707.568 156.149 744.978 119.098 798.936 119.098ZM798.936 256.51C824.836 256.51 842.822 237.085 842.822 209.387C842.822 181.329 824.836 161.904 798.936 161.904C772.677 161.904 754.691 181.329 754.691 209.387C754.691 237.085 772.677 256.51 798.936 256.51ZM970.575 143.199C986.043 128.451 1005.83 120.537 1031.37 120.537V165.142C1004.75 166.581 985.323 174.495 970.575 191.042V295H923.452V123.415H970.575V143.199ZM1187.69 295L1140.57 228.812L1111.79 259.028V295H1064.67V39.6005H1111.79V197.157L1180.5 123.415H1240.21L1172.94 194.639L1248.48 295H1187.69Z"/>
</mask>
<path d="M666.667 50.392H718.466L637.889 296.439H589.687L535.01 138.523L479.973 296.439H431.771L351.194 50.392H402.994L456.232 219.459L514.146 50.392H555.514L613.429 219.459L666.667 50.392ZM798.936 119.098C852.534 119.098 889.945 156.149 889.945 209.387C889.945 262.266 852.534 299.317 798.936 299.317C744.978 299.317 707.568 262.266 707.568 209.387C707.568 156.149 744.978 119.098 798.936 119.098ZM798.936 256.51C824.836 256.51 842.822 237.085 842.822 209.387C842.822 181.329 824.836 161.904 798.936 161.904C772.677 161.904 754.691 181.329 754.691 209.387C754.691 237.085 772.677 256.51 798.936 256.51ZM970.575 143.199C986.043 128.451 1005.83 120.537 1031.37 120.537V165.142C1004.75 166.581 985.323 174.495 970.575 191.042V295H923.452V123.415H970.575V143.199ZM1187.69 295L1140.57 228.812L1111.79 259.028V295H1064.67V39.6005H1111.79V197.157L1180.5 123.415H1240.21L1172.94 194.639L1248.48 295H1187.69Z" fill="black"/>
<path d="M666.667 50.392V48.392H665.2L664.759 49.7913L666.667 50.392ZM718.466 50.392L720.367 51.0144L721.226 48.392H718.466V50.392ZM637.889 296.439V298.439H639.339L639.79 297.061L637.889 296.439ZM589.687 296.439L587.797 297.093L588.263 298.439H589.687V296.439ZM535.01 138.523L536.9 137.868L535.016 132.428L533.121 137.865L535.01 138.523ZM479.973 296.439V298.439H481.394L481.862 297.097L479.973 296.439ZM431.771 296.439L429.87 297.061L430.322 298.439H431.771V296.439ZM351.194 50.392V48.392H348.435L349.294 51.0144L351.194 50.392ZM402.994 50.392L404.901 49.7913L404.461 48.392H402.994V50.392ZM456.232 219.459L454.324 220.06L456.152 225.864L458.124 220.107L456.232 219.459ZM514.146 50.392V48.392H512.717L512.254 49.7439L514.146 50.392ZM555.514 50.392L557.406 49.7439L556.943 48.392H555.514V50.392ZM613.429 219.459L611.536 220.107L613.508 225.864L615.336 220.06L613.429 219.459ZM666.667 52.392H718.466V48.392H666.667V52.392ZM716.565 49.7696L635.989 295.816L639.79 297.061L720.367 51.0144L716.565 49.7696ZM637.889 294.439H589.687V298.439H637.889V294.439ZM591.577 295.785L536.9 137.868L533.12 139.177L587.797 297.093L591.577 295.785ZM533.121 137.865L478.085 295.781L481.862 297.097L536.899 139.181L533.121 137.865ZM479.973 294.439H431.771V298.439H479.973V294.439ZM433.672 295.816L353.095 49.7696L349.294 51.0144L429.87 297.061L433.672 295.816ZM351.194 52.392H402.994V48.392H351.194V52.392ZM401.086 50.9927L454.324 220.06L458.14 218.859L404.901 49.7913L401.086 50.9927ZM458.124 220.107L516.039 51.0401L512.254 49.7439L454.34 218.811L458.124 220.107ZM514.146 52.392H555.514V48.392H514.146V52.392ZM553.622 51.0401L611.536 220.107L615.321 218.811L557.406 49.7439L553.622 51.0401ZM615.336 220.06L668.574 50.9927L664.759 49.7913L611.521 218.859L615.336 220.06ZM798.936 121.098C825.263 121.098 847.491 130.19 863.131 145.698C878.77 161.206 887.945 183.25 887.945 209.387H891.945C891.945 182.286 882.414 159.186 865.948 142.858C849.483 126.532 826.207 117.098 798.936 117.098V121.098ZM887.945 209.387C887.945 235.341 878.773 257.295 863.133 272.759C847.493 288.225 825.263 297.317 798.936 297.317V301.317C826.207 301.317 849.482 291.883 865.946 275.603C882.411 259.322 891.945 236.312 891.945 209.387H887.945ZM798.936 297.317C772.425 297.317 750.106 288.222 734.422 272.757C718.74 257.294 709.568 235.341 709.568 209.387H705.568C705.568 236.312 715.101 259.324 731.614 275.605C748.124 291.885 771.489 301.317 798.936 301.317V297.317ZM709.568 209.387C709.568 183.25 718.742 161.207 734.424 145.7C750.108 130.192 772.426 121.098 798.936 121.098V117.098C771.489 117.098 748.123 126.529 731.612 142.856C715.099 159.184 705.568 182.286 705.568 209.387H709.568ZM798.936 258.51C812.41 258.51 823.923 253.445 832.056 244.697C840.179 235.96 844.822 223.671 844.822 209.387H840.822C840.822 222.801 836.471 234.074 829.126 241.974C821.792 249.863 811.362 254.51 798.936 254.51V258.51ZM844.822 209.387C844.822 194.93 840.183 182.551 832.06 173.766C823.925 164.97 812.411 159.904 798.936 159.904V163.904C811.361 163.904 821.789 168.551 829.123 176.482C836.467 184.424 840.822 195.787 840.822 209.387H844.822ZM798.936 159.904C785.289 159.904 773.685 164.964 765.502 173.762C757.33 182.548 752.691 194.929 752.691 209.387H756.691C756.691 195.787 761.045 184.427 768.431 176.486C775.806 168.557 786.323 163.904 798.936 163.904V159.904ZM752.691 209.387C752.691 223.671 757.334 235.963 765.505 244.702C773.687 253.451 785.29 258.51 798.936 258.51V254.51C786.323 254.51 775.803 249.857 768.427 241.97C761.041 234.071 756.691 222.801 756.691 209.387H752.691ZM970.575 143.199H968.575V147.87L971.955 144.647L970.575 143.199ZM1031.37 120.537H1033.37V118.537H1031.37V120.537ZM1031.37 165.142L1031.48 167.139L1033.37 167.037V165.142H1031.37ZM970.575 191.042L969.082 189.711L968.575 190.28V191.042H970.575ZM970.575 295V297H972.575V295H970.575ZM923.452 295H921.452V297H923.452V295ZM923.452 123.415V121.415H921.452V123.415H923.452ZM970.575 123.415H972.575V121.415H970.575V123.415ZM971.955 144.647C987.014 130.288 1006.29 122.537 1031.37 122.537V118.537C1005.37 118.537 985.071 126.613 969.195 141.752L971.955 144.647ZM1029.37 120.537V165.142H1033.37V120.537H1029.37ZM1031.26 163.145C1004.26 164.604 984.274 172.666 969.082 189.711L972.068 192.372C986.372 176.323 1005.24 168.557 1031.48 167.139L1031.26 163.145ZM968.575 191.042V295H972.575V191.042H968.575ZM970.575 293H923.452V297H970.575V293ZM925.452 295V123.415H921.452V295H925.452ZM923.452 125.415H970.575V121.415H923.452V125.415ZM968.575 123.415V143.199H972.575V123.415H968.575ZM1187.69 295L1186.06 296.16L1186.66 297H1187.69V295ZM1140.57 228.812L1142.2 227.652L1140.79 225.677L1139.12 227.433L1140.57 228.812ZM1111.79 259.028L1110.34 257.649L1109.79 258.228V259.028H1111.79ZM1111.79 295V297H1113.79V295H1111.79ZM1064.67 295H1062.67V297H1064.67V295ZM1064.67 39.6005V37.6005H1062.67V39.6005H1064.67ZM1111.79 39.6005H1113.79V37.6005H1111.79V39.6005ZM1111.79 197.157H1109.79V202.237L1113.26 198.52L1111.79 197.157ZM1180.5 123.415V121.415H1179.63L1179.03 122.051L1180.5 123.415ZM1240.21 123.415L1241.67 124.788L1244.85 121.415H1240.21V123.415ZM1172.94 194.639L1171.49 193.266L1170.33 194.493L1171.35 195.842L1172.94 194.639ZM1248.48 295V297H1252.49L1250.08 293.797L1248.48 295ZM1189.32 293.84L1142.2 227.652L1138.94 229.972L1186.06 296.16L1189.32 293.84ZM1139.12 227.433L1110.34 257.649L1113.24 260.408L1142.02 230.191L1139.12 227.433ZM1109.79 259.028V295H1113.79V259.028H1109.79ZM1111.79 293H1064.67V297H1111.79V293ZM1066.67 295V39.6005H1062.67V295H1066.67ZM1064.67 41.6005H1111.79V37.6005H1064.67V41.6005ZM1109.79 39.6005V197.157H1113.79V39.6005H1109.79ZM1113.26 198.52L1181.96 124.778L1179.03 122.051L1110.33 195.793L1113.26 198.52ZM1180.5 125.415H1240.21V121.415H1180.5V125.415ZM1238.76 122.041L1171.49 193.266L1174.4 196.012L1241.67 124.788L1238.76 122.041ZM1171.35 195.842L1246.89 296.203L1250.08 293.797L1174.54 193.436L1171.35 195.842ZM1248.48 293H1187.69V297H1248.48V293Z" fill="white" mask="url(#path-1-outside-1_485_2660)"/>
<path d="M766.56 503.52C762.12 503.52 758.64 500.28 758.64 495.84C758.64 491.4 762.12 488.16 766.56 488.16C770.88 488.16 774.48 491.4 774.48 495.84C774.48 500.28 770.88 503.52 766.56 503.52ZM760.44 516.6H772.8V573H760.44V516.6ZM799.015 554.4C800.335 561.36 805.495 564.24 814.015 564.24C821.335 564.24 826.375 561.84 826.375 557.4C826.375 554.04 823.615 551.64 818.815 550.8L806.335 548.64C797.695 547.2 789.655 542.88 789.655 532.68C789.655 521.76 799.135 515.04 813.175 515.04C824.095 515.04 836.695 518.76 837.895 533.52H826.375C825.775 527.4 820.375 525 813.175 525C805.975 525 802.015 527.64 802.015 531.6C802.015 534.6 804.175 537.48 810.775 538.56L821.335 540.24C829.855 541.8 838.255 545.52 838.255 556.44C838.255 568.32 827.815 574.44 813.655 574.44C800.335 574.44 788.935 569.16 787.495 554.28L799.015 554.4Z" fill="black"/>
<mask id="path-4-outside-2_485_2660" maskUnits="userSpaceOnUse" x="23" y="619.984" width="593" height="254" fill="black">
<rect fill="white" x="23" y="619.984" width="593" height="254"/>
<path d="M202.521 667.701H74.1018V730.651H186.334V775.976H74.1018V866.984H25.1802V622.376H202.521V667.701ZM348.729 695.399H395.852V866.984H348.729V853.315C334.7 864.466 318.513 871.301 299.088 871.301C253.404 871.301 223.188 837.847 223.188 787.487V695.399H270.311V784.609C270.311 812.667 284.34 828.495 309.16 828.495C322.11 828.495 336.499 820.581 348.729 805.832V695.399ZM537.809 691.082C583.493 691.082 613.709 723.457 613.709 773.818V866.984H566.586V776.695C566.586 748.637 552.557 733.889 527.737 733.889C514.787 733.889 500.398 741.443 488.168 755.832V866.984H441.045V695.399H488.168V708.349C502.197 697.198 518.384 691.082 537.809 691.082Z"/>
</mask>
<path d="M202.521 667.701H74.1018V730.651H186.334V775.976H74.1018V866.984H25.1802V622.376H202.521V667.701ZM348.729 695.399H395.852V866.984H348.729V853.315C334.7 864.466 318.513 871.301 299.088 871.301C253.404 871.301 223.188 837.847 223.188 787.487V695.399H270.311V784.609C270.311 812.667 284.34 828.495 309.16 828.495C322.11 828.495 336.499 820.581 348.729 805.832V695.399ZM537.809 691.082C583.493 691.082 613.709 723.457 613.709 773.818V866.984H566.586V776.695C566.586 748.637 552.557 733.889 527.737 733.889C514.787 733.889 500.398 741.443 488.168 755.832V866.984H441.045V695.399H488.168V708.349C502.197 697.198 518.384 691.082 537.809 691.082Z" fill="#F1A187"/>
<path d="M202.521 667.701V669.701H204.521V667.701H202.521ZM74.1018 667.701V665.701H72.1018V667.701H74.1018ZM74.1018 730.651H72.1018V732.651H74.1018V730.651ZM186.334 730.651H188.334V728.651H186.334V730.651ZM186.334 775.976V777.976H188.334V775.976H186.334ZM74.1018 775.976V773.976H72.1018V775.976H74.1018ZM74.1018 866.984V868.984H76.1018V866.984H74.1018ZM25.1802 866.984H23.1802V868.984H25.1802V866.984ZM25.1802 622.376V620.376H23.1802V622.376H25.1802ZM202.521 622.376H204.521V620.376H202.521V622.376ZM202.521 665.701H74.1018V669.701H202.521V665.701ZM72.1018 667.701V730.651H76.1018V667.701H72.1018ZM74.1018 732.651H186.334V728.651H74.1018V732.651ZM184.334 730.651V775.976H188.334V730.651H184.334ZM186.334 773.976H74.1018V777.976H186.334V773.976ZM72.1018 775.976V866.984H76.1018V775.976H72.1018ZM74.1018 864.984H25.1802V868.984H74.1018V864.984ZM27.1802 866.984V622.376H23.1802V866.984H27.1802ZM25.1802 624.376H202.521V620.376H25.1802V624.376ZM200.521 622.376V667.701H204.521V622.376H200.521ZM348.729 695.399V693.399H346.729V695.399H348.729ZM395.852 695.399H397.852V693.399H395.852V695.399ZM395.852 866.984V868.984H397.852V866.984H395.852ZM348.729 866.984H346.729V868.984H348.729V866.984ZM348.729 853.315H350.729V849.171L347.485 851.749L348.729 853.315ZM223.188 695.399V693.399H221.188V695.399H223.188ZM270.311 695.399H272.311V693.399H270.311V695.399ZM348.729 805.832L350.269 807.109L350.729 806.554V805.832H348.729ZM348.729 697.399H395.852V693.399H348.729V697.399ZM393.852 695.399V866.984H397.852V695.399H393.852ZM395.852 864.984H348.729V868.984H395.852V864.984ZM350.729 866.984V853.315H346.729V866.984H350.729ZM347.485 851.749C333.753 862.665 317.994 869.301 299.088 869.301V873.301C319.033 873.301 335.648 866.268 349.974 854.881L347.485 851.749ZM299.088 869.301C276.762 869.301 258.343 861.141 245.49 846.937C232.619 832.715 225.188 812.272 225.188 787.487H221.188C221.188 813.062 228.865 834.527 242.524 849.621C256.2 864.734 275.731 873.301 299.088 873.301V869.301ZM225.188 787.487V695.399H221.188V787.487H225.188ZM223.188 697.399H270.311V693.399H223.188V697.399ZM268.311 695.399V784.609H272.311V695.399H268.311ZM268.311 784.609C268.311 798.947 271.895 810.454 278.931 818.399C285.999 826.381 296.308 830.495 309.16 830.495V826.495C297.193 826.495 288.077 822.694 281.925 815.748C275.741 808.764 272.311 798.329 272.311 784.609H268.311ZM309.16 830.495C322.912 830.495 337.814 822.129 350.269 807.109L347.19 804.556C335.184 819.033 321.309 826.495 309.16 826.495V830.495ZM350.729 805.832V695.399H346.729V805.832H350.729ZM613.709 866.984V868.984H615.709V866.984H613.709ZM566.586 866.984H564.586V868.984H566.586V866.984ZM488.168 755.832L486.644 754.536L486.168 755.096V755.832H488.168ZM488.168 866.984V868.984H490.168V866.984H488.168ZM441.045 866.984H439.045V868.984H441.045V866.984ZM441.045 695.399V693.399H439.045V695.399H441.045ZM488.168 695.399H490.168V693.399H488.168V695.399ZM488.168 708.349H486.168V712.493L489.412 709.915L488.168 708.349ZM537.809 693.082C560.156 693.082 578.575 700.987 591.42 714.92C604.279 728.869 611.709 749.034 611.709 773.818H615.709C615.709 748.24 608.031 727.038 594.361 712.209C580.677 697.365 561.146 689.082 537.809 689.082V693.082ZM611.709 773.818V866.984H615.709V773.818H611.709ZM613.709 864.984H566.586V868.984H613.709V864.984ZM568.586 866.984V776.695H564.586V866.984H568.586ZM568.586 776.695C568.586 762.357 565.002 751.101 557.942 743.417C550.858 735.706 540.548 731.889 527.737 731.889V735.889C539.746 735.889 548.861 739.445 554.996 746.123C561.156 752.828 564.586 762.975 564.586 776.695H568.586ZM527.737 731.889C514.017 731.889 499.117 739.862 486.644 754.536L489.692 757.127C501.679 743.024 515.556 735.889 527.737 735.889V731.889ZM486.168 755.832V866.984H490.168V755.832H486.168ZM488.168 864.984H441.045V868.984H488.168V864.984ZM443.045 866.984V695.399H439.045V866.984H443.045ZM441.045 697.399H488.168V693.399H441.045V697.399ZM486.168 695.399V708.349H490.168V695.399H486.168ZM489.412 709.915C503.1 699.035 518.851 693.082 537.809 693.082V689.082C517.917 689.082 501.294 695.36 486.923 706.783L489.412 709.915Z" fill="black" mask="url(#path-4-outside-2_485_2660)"/>
<mask id="path-6-outside-3_485_2660" maskUnits="userSpaceOnUse" x="687.102" y="774.654" width="159.692" height="162.038" fill="black">
<rect fill="white" x="687.102" y="774.654" width="159.692" height="162.038"/>
<path d="M842.162 891.07L813.969 901.613L801.766 896.461C795.448 907.045 786.203 914.799 774.074 919.335C748.995 928.714 727.004 920.869 719.158 899.888C714.377 887.103 717.441 873.813 726.975 863.335C719.319 858.351 714.817 853.308 712.182 846.26C705.132 827.41 715.8 808.473 735.798 800.995C755.959 793.455 773.607 802.176 783.257 820.988L761.621 829.079C757.163 820.657 750.182 817.476 742.806 820.234C735.43 822.993 731.654 830.383 734.596 838.251C737.784 846.775 747.12 850.757 766.407 858.865L790.423 869.128L795.978 842.014L818.434 833.616L810.102 874.287C809.917 875.29 809.732 876.293 809.485 877.133L842.162 891.07ZM766.963 900.321C772.864 898.114 778.193 893.879 782.479 888.353L750.764 874.99C748.738 874.067 746.772 873.307 744.806 872.548C739.434 878.667 737.523 885.547 739.914 891.94C743.163 900.627 755.325 904.673 766.963 900.321Z"/>
</mask>
<path d="M842.162 891.07L842.509 891.998L844.829 891.131L842.551 890.159L842.162 891.07ZM813.969 901.613L813.583 902.526L813.947 902.68L814.316 902.542L813.969 901.613ZM801.766 896.461L802.152 895.548L801.357 895.213L800.915 895.953L801.766 896.461ZM726.975 863.335L727.708 864.002L728.492 863.14L727.515 862.504L726.975 863.335ZM783.257 820.988L783.605 821.916L784.647 821.526L784.139 820.536L783.257 820.988ZM761.621 829.079L760.745 829.543L761.152 830.312L761.968 830.007L761.621 829.079ZM766.407 858.865L766.796 857.953L766.791 857.951L766.407 858.865ZM790.423 869.128L790.034 870.039L791.15 870.516L791.394 869.326L790.423 869.128ZM795.978 842.014L795.631 841.086L795.117 841.278L795.007 841.815L795.978 842.014ZM818.434 833.616L819.405 833.815L819.765 832.061L818.087 832.688L818.434 833.616ZM810.102 874.287L809.131 874.088L809.129 874.097L809.128 874.107L810.102 874.287ZM809.485 877.133L808.534 876.854L808.286 877.699L809.096 878.045L809.485 877.133ZM782.479 888.353L783.262 888.96L784.053 887.941L782.864 887.44L782.479 888.353ZM750.764 874.99L750.354 875.892L750.367 875.898L750.38 875.904L750.764 874.99ZM744.806 872.548L745.164 871.623L744.518 871.374L744.062 871.894L744.806 872.548ZM841.815 890.142L813.622 900.685L814.316 902.542L842.509 891.998L841.815 890.142ZM814.354 900.7L802.152 895.548L801.381 897.374L813.583 902.526L814.354 900.7ZM800.915 895.953C794.714 906.34 785.649 913.948 773.727 918.407L774.421 920.263C786.757 915.65 796.181 907.749 802.617 896.969L800.915 895.953ZM773.727 918.407C761.356 923.033 749.833 923.38 740.485 920.063C731.156 916.752 723.91 909.766 720.086 899.541L718.23 900.236C722.252 910.992 729.925 918.418 739.822 921.93C749.701 925.436 761.713 925.015 774.421 920.263L773.727 918.407ZM720.086 899.541C715.448 887.139 718.398 874.234 727.708 864.002L726.242 862.668C716.484 873.392 713.306 887.067 718.23 900.236L720.086 899.541ZM727.515 862.504C719.986 857.602 715.652 852.712 713.11 845.913L711.253 846.607C713.982 853.904 718.652 859.099 726.434 864.165L727.515 862.504ZM713.11 845.913C706.292 827.682 716.547 809.252 736.145 801.923L735.451 800.067C715.054 807.694 703.973 827.137 711.253 846.607L713.11 845.913ZM736.145 801.923C746.008 798.235 755.19 798.542 763.069 802.017C770.961 805.497 777.633 812.195 782.376 821.44L784.139 820.536C779.232 810.969 772.255 803.901 763.869 800.203C755.471 796.5 745.75 796.215 735.451 800.067L736.145 801.923ZM782.91 820.06L761.274 828.151L761.968 830.007L783.605 821.916L782.91 820.06ZM762.497 828.616C760.195 824.266 757.195 821.183 753.727 819.566C750.241 817.941 746.375 817.842 742.459 819.306L743.153 821.162C746.613 819.868 749.925 819.98 752.889 821.362C755.87 822.752 758.589 825.47 760.745 829.543L762.497 828.616ZM742.459 819.306C734.593 822.247 730.526 830.195 733.668 838.598L735.525 837.904C732.783 830.572 736.266 823.738 743.153 821.162L742.459 819.306ZM733.668 838.598C735.371 843.151 738.71 846.428 743.956 849.564C749.173 852.683 756.406 855.735 766.023 859.778L766.791 857.951C757.122 853.886 750.042 850.893 744.973 847.863C739.933 844.85 737.009 841.874 735.525 837.904L733.668 838.598ZM766.018 859.776L790.034 870.039L790.813 868.216L766.796 857.953L766.018 859.776ZM791.394 869.326L796.949 842.213L795.007 841.815L789.453 868.929L791.394 869.326ZM796.325 842.942L818.781 834.545L818.087 832.688L795.631 841.086L796.325 842.942ZM817.464 833.418L809.131 874.088L811.073 874.485L819.405 833.815L817.464 833.418ZM809.128 874.107C808.94 875.124 808.763 876.073 808.534 876.854L810.436 877.412C810.7 876.514 810.894 875.456 811.077 874.466L809.128 874.107ZM809.096 878.045L841.773 891.982L842.551 890.159L809.874 876.222L809.096 878.045ZM767.31 901.249C773.416 898.966 778.887 894.602 783.262 888.96L781.696 887.746C777.5 893.157 772.313 897.263 766.616 899.393L767.31 901.249ZM782.864 887.44L751.149 874.077L750.38 875.904L782.094 889.266L782.864 887.44ZM751.175 874.089C749.118 873.151 747.126 872.382 745.164 871.623L744.449 873.472C746.418 874.233 748.357 874.983 750.354 875.892L751.175 874.089ZM744.062 871.894C738.526 878.199 736.431 885.455 738.986 892.287L740.842 891.593C738.616 885.64 740.342 879.135 745.551 873.201L744.062 871.894ZM738.986 892.287C740.741 896.979 744.873 900.342 749.993 901.965C755.118 903.589 761.296 903.499 767.31 901.249L766.616 899.393C760.993 901.496 755.271 901.558 750.592 900.076C745.909 898.591 742.336 895.588 740.842 891.593L738.986 892.287Z" fill="black" mask="url(#path-6-outside-3_485_2660)"/>
<mask id="path-8-outside-4_485_2660" maskUnits="userSpaceOnUse" x="934" y="720.984" width="625" height="333" fill="black">
<rect fill="white" x="934" y="720.984" width="625" height="333"/>
<path d="M1125.81 723.376V875.897C1125.81 938.847 1088.4 972.301 1029.04 972.301C977.605 972.301 939.115 941.725 936.597 887.408H986.238C987.317 914.386 1007.46 926.617 1032.28 926.617C1057.1 926.617 1076.17 908.631 1076.17 874.458V723.376H1125.81ZM1249.53 792.082C1303.13 792.082 1340.54 829.133 1340.54 882.372C1340.54 935.25 1303.13 972.301 1249.53 972.301C1195.57 972.301 1158.16 935.25 1158.16 882.372C1158.16 829.133 1195.57 792.082 1249.53 792.082ZM1249.53 929.495C1275.43 929.495 1293.41 910.07 1293.41 882.372C1293.41 854.314 1275.43 834.889 1249.53 834.889C1223.27 834.889 1205.28 854.314 1205.28 882.372C1205.28 910.07 1223.27 929.495 1249.53 929.495ZM1505.96 796.039H1555.6L1445.89 1051.44H1396.25L1432.22 967.265L1345.89 796.039H1396.25L1454.16 916.904L1505.96 796.039Z"/>
</mask>
<path d="M1125.81 723.376V875.897C1125.81 938.847 1088.4 972.301 1029.04 972.301C977.605 972.301 939.115 941.725 936.597 887.408H986.238C987.317 914.386 1007.46 926.617 1032.28 926.617C1057.1 926.617 1076.17 908.631 1076.17 874.458V723.376H1125.81ZM1249.53 792.082C1303.13 792.082 1340.54 829.133 1340.54 882.372C1340.54 935.25 1303.13 972.301 1249.53 972.301C1195.57 972.301 1158.16 935.25 1158.16 882.372C1158.16 829.133 1195.57 792.082 1249.53 792.082ZM1249.53 929.495C1275.43 929.495 1293.41 910.07 1293.41 882.372C1293.41 854.314 1275.43 834.889 1249.53 834.889C1223.27 834.889 1205.28 854.314 1205.28 882.372C1205.28 910.07 1223.27 929.495 1249.53 929.495ZM1505.96 796.039H1555.6L1445.89 1051.44H1396.25L1432.22 967.265L1345.89 796.039H1396.25L1454.16 916.904L1505.96 796.039Z" fill="#3A7BDF"/>
<path d="M1125.81 723.376H1127.81V721.376H1125.81V723.376ZM936.597 887.408V885.408H934.502L934.599 887.5L936.597 887.408ZM986.238 887.408L988.237 887.328L988.16 885.408H986.238V887.408ZM1076.17 723.376V721.376H1074.17V723.376H1076.17ZM1123.81 723.376V875.897H1127.81V723.376H1123.81ZM1123.81 875.897C1123.81 906.972 1114.58 930.501 1098.29 946.268C1081.99 962.046 1058.35 970.301 1029.04 970.301V974.301C1059.09 974.301 1083.83 965.83 1101.08 949.142C1118.33 932.445 1127.81 907.771 1127.81 875.897H1123.81ZM1029.04 970.301C1003.72 970.301 981.734 962.776 965.798 948.723C949.882 934.688 939.832 913.996 938.595 887.315L934.599 887.5C935.88 915.137 946.334 936.892 963.152 951.723C979.951 966.538 1002.93 974.301 1029.04 974.301V970.301ZM936.597 889.408H986.238V885.408H936.597V889.408ZM984.24 887.488C984.801 901.511 990.349 911.885 999.13 918.708C1007.85 925.488 1019.57 928.617 1032.28 928.617V924.617C1020.17 924.617 1009.41 921.631 1001.58 915.55C993.818 909.514 988.755 900.283 988.237 887.328L984.24 887.488ZM1032.28 928.617C1045.2 928.617 1056.73 923.925 1065.02 914.688C1073.3 905.468 1078.17 891.91 1078.17 874.458H1074.17C1074.17 891.179 1069.51 903.7 1062.04 912.016C1054.6 920.316 1044.19 924.617 1032.28 924.617V928.617ZM1078.17 874.458V723.376H1074.17V874.458H1078.17ZM1076.17 725.376H1125.81V721.376H1076.17V725.376ZM1249.53 794.082C1275.86 794.082 1298.08 803.174 1313.72 818.683C1329.36 834.19 1338.54 856.235 1338.54 882.372H1342.54C1342.54 855.27 1333.01 832.17 1316.54 815.842C1300.08 799.516 1276.8 790.082 1249.53 790.082V794.082ZM1338.54 882.372C1338.54 908.325 1329.37 930.28 1313.73 945.744C1298.09 961.209 1275.86 970.301 1249.53 970.301V974.301C1276.8 974.301 1300.07 964.868 1316.54 948.588C1333 932.307 1342.54 909.296 1342.54 882.372H1338.54ZM1249.53 970.301C1223.02 970.301 1200.7 961.207 1185.02 945.742C1169.33 930.278 1160.16 908.325 1160.16 882.372H1156.16C1156.16 909.297 1165.69 932.308 1182.21 948.59C1198.72 964.87 1222.08 974.301 1249.53 974.301V970.301ZM1160.16 882.372C1160.16 856.235 1169.34 834.191 1185.02 818.685C1200.7 803.177 1223.02 794.082 1249.53 794.082V790.082C1222.08 790.082 1198.72 799.514 1182.2 815.841C1165.69 832.169 1156.16 855.27 1156.16 882.372H1160.16ZM1249.53 931.495C1263 931.495 1274.52 926.43 1282.65 917.682C1290.77 908.945 1295.41 896.656 1295.41 882.372H1291.41C1291.41 895.786 1287.06 907.058 1279.72 914.958C1272.38 922.847 1261.95 927.495 1249.53 927.495V931.495ZM1295.41 882.372C1295.41 867.914 1290.78 855.535 1282.65 846.751C1274.52 837.954 1263 832.889 1249.53 832.889V836.889C1261.95 836.889 1272.38 841.536 1279.72 849.466C1287.06 857.409 1291.41 868.771 1291.41 882.372H1295.41ZM1249.53 832.889C1235.88 832.889 1224.28 837.949 1216.09 846.746C1207.92 855.532 1203.28 867.914 1203.28 882.372H1207.28C1207.28 868.771 1211.64 857.411 1219.02 849.471C1226.4 841.541 1236.92 836.889 1249.53 836.889V832.889ZM1203.28 882.372C1203.28 896.656 1207.93 908.947 1216.1 917.686C1224.28 926.435 1235.88 931.495 1249.53 931.495V927.495C1236.92 927.495 1226.4 922.841 1219.02 914.954C1211.63 907.055 1207.28 895.786 1207.28 882.372H1203.28ZM1505.96 796.039V794.039H1504.64L1504.12 795.251L1505.96 796.039ZM1555.6 796.039L1557.44 796.829L1558.64 794.039H1555.6V796.039ZM1445.89 1051.44V1053.44H1447.21L1447.73 1052.23L1445.89 1051.44ZM1396.25 1051.44L1394.41 1050.65L1393.22 1053.44H1396.25V1051.44ZM1432.22 967.265L1434.06 968.051L1434.43 967.195L1434.01 966.365L1432.22 967.265ZM1345.89 796.039V794.039H1342.64L1344.1 796.94L1345.89 796.039ZM1396.25 796.039L1398.05 795.175L1397.51 794.039H1396.25V796.039ZM1454.16 916.904L1452.36 917.769L1454.27 921.745L1456 917.692L1454.16 916.904ZM1505.96 798.039H1555.6V794.039H1505.96V798.039ZM1553.77 795.25L1444.05 1050.65L1447.73 1052.23L1557.44 796.829L1553.77 795.25ZM1445.89 1049.44H1396.25V1053.44H1445.89V1049.44ZM1398.09 1052.22L1434.06 968.051L1430.38 966.479L1394.41 1050.65L1398.09 1052.22ZM1434.01 966.365L1347.67 795.139L1344.1 796.94L1430.43 968.165L1434.01 966.365ZM1345.89 798.039H1396.25V794.039H1345.89V798.039ZM1394.45 796.904L1452.36 917.769L1455.97 916.04L1398.05 795.175L1394.45 796.904ZM1456 917.692L1507.8 796.827L1504.12 795.251L1452.33 916.117L1456 917.692Z" fill="black" mask="url(#path-8-outside-4_485_2660)"/>
</svg>
