<svg width="20" height="20" transform="rotate(90)" viewBox="0 0 20 20" fill="none" xmlns="http://www.w3.org/2000/svg">
<path fill-rule="evenodd" clip-rule="evenodd" d="M13.3863 9.11333C13.6203 9.34771 13.7518 9.66541 13.7518 9.99666C13.7518 10.3279 13.6203 10.6456 13.3863 10.88L8.67292 15.595C8.43842 15.8294 8.12042 15.961 7.78887 15.9609C7.45733 15.9609 7.13939 15.8291 6.905 15.5946C6.67062 15.3601 6.53898 15.0421 6.53906 14.7105C6.53914 14.379 6.67092 14.0611 6.90542 13.8267L10.7354 9.99666L6.90542 6.16666C6.67761 5.93102 6.55146 5.61533 6.55416 5.28758C6.55685 4.95983 6.68816 4.64625 6.91981 4.41438C7.15146 4.18251 7.46492 4.0509 7.79267 4.0479C8.12041 4.0449 8.43623 4.17074 8.67208 4.39833L13.3871 9.1125L13.3863 9.11333Z" fill="#B4BCC6"/>
</svg>
